<?xml version="1.0" encoding="UTF-8"?>
<svg width="30px" height="30px" viewBox="0 0 30 30" version="1.1" xmlns="http://www.w3.org/2000/svg" xmlns:xlink="http://www.w3.org/1999/xlink">
    <!-- Generator: Sketch 48.2 (47327) - http://www.bohemiancoding.com/sketch -->
    <title>Facebook-color</title>
    <desc>Created with Sketch.</desc>
    <defs></defs>
    <g id="Propuesta---blogpost" stroke="none" stroke-width="1" fill="none" fill-rule="evenodd" transform="translate(-1085.000000, -828.000000)">
        <g id="Group-2" transform="translate(319.000000, 598.000000)" fill="#4460A0">
            <g id="share" transform="translate(758.000000, 196.000000)">
                <path d="M24.023972,64 L9.6557697,64 C8.74104541,64 8,63.2584947 8,62.3441267 L8,35.6557569 C8,34.7411561 8.74116182,34 9.6557697,34 L36.3443467,34 C37.2587218,34 38,34.7411561 38,35.6557569 L38,62.3441267 C38,63.2586111 37.2586054,64 36.3443467,64 L28.6995658,64 L28.6995658,52.3823467 L32.5990757,52.3823467 L33.182972,47.854741 L28.6995658,47.854741 L28.6995658,44.9641509 C28.6995658,43.6533046 29.0635697,42.7600061 30.943306,42.7600061 L33.3408196,42.7589584 L33.3408196,38.7094316 C32.9261787,38.6542552 31.5029897,38.5309814 29.84722,38.5309814 C26.3905214,38.5309814 24.023972,40.6409539 24.023972,44.5157555 L24.023972,47.854741 L20.1144511,47.854741 L20.1144511,52.3823467 L24.023972,52.3823467 L24.023972,64 L24.023972,64 Z" id="Facebook"></path>
            </g>
        </g>
    </g>
</svg>