<svg width="697" height="258" viewBox="0 0 697 258" xmlns="http://www.w3.org/2000/svg"><title>Fill 1</title><path d="M649.508 175.1c-6.233 0-12.092-2.425-16.49-6.84a23.116 23.116 0 0 1-6.841-16.476v-.528c17.564-7.041 26.44-24.342 26.44-51.683 0-25.85-8.239-56.657-47.502-56.657-31.087 0-46.832 19.072-46.832 56.657 0 27.543 8.859 44.89 26.425 51.838v.373c0 12.855-10.463 23.316-23.332 23.316h-14.502V98.92c.125-25.165 7.833-67.397 58.24-67.397 37.23 0 58.694 24.559 58.896 67.397l.016 76.18h-14.518zm-84.945-79.366c.931-31.756 13.894-46.6 40.552-46.6 17.782 0 29.721 6.792 36 20.564-17.503 1.477-27.544 7.477-37.26 13.305l-.341.218c-10.257 6.155-20.098 11.938-38.951 12.513zm40.552 52.942c-27.046 0-39.977-14.876-40.6-46.725 20.844-.606 31.864-7.197 42.527-13.6l.342-.203c9.715-5.829 19.041-11.3 36.001-12.372 2.005 6.668 3.014 14.58 3.014 23.797 0 33.03-13.506 49.103-41.284 49.103zM420.61 126.899c-32.455 0-47.968-17.844-48.698-56.066 24.994-.73 38.222-8.643 51.014-16.321l.404-.249c11.674-6.995 22.85-13.554 43.212-14.844 2.41 8.005 3.606 17.502 3.606 28.554 0 39.652-16.197 58.926-49.538 58.926zm0-119.438c21.357 0 35.673 8.13 43.212 24.683-21 1.757-33.046 8.97-44.718 15.964l-.406.248c-12.31 7.384-24.124 14.316-46.755 15.016C373.078 25.274 388.622 7.46 420.61 7.46zM268.174 175.115a23.318 23.318 0 0 1-.715-5.704v-.529c17.564-7.04 26.441-24.341 26.441-51.698 0-25.834-8.24-56.641-47.503-56.641-31.072 0-46.833 19.056-46.833 56.641 0 27.543 8.876 44.906 26.424 51.854v.373c0 1.943-.233 3.855-.7 5.704h-37.133V119.64l.016-3.109c.124-25.165 7.834-67.382 58.226-67.382 37.227 0 58.693 24.56 58.897 67.398l.015 58.568h-37.135zm-21.777-8.828c-27.714 0-40.615-15.606-40.615-49.103 0-34.398 12.9-50.424 40.615-50.424 27.792 0 41.286 16.492 41.286 50.424 0 33.046-13.494 49.103-41.286 49.103zm-154.829 0c-27.778 0-41.286-16.057-41.286-49.103 0-9.202.995-17.13 3.016-23.782 16.958 1.057 26.269 6.528 35.999 12.357l.344.218c10.645 6.404 21.681 12.995 42.51 13.6-.605 31.85-13.539 46.71-40.583 46.71zm0-99.527c26.656 0 39.604 14.844 40.554 46.6-18.857-.59-28.696-6.357-38.955-12.512l-.342-.218c-9.728-5.829-19.77-11.844-37.256-13.305C61.847 73.537 73.77 66.76 91.568 66.76zm578.675 108.51V98.906l-.015-3.11h-.046c-1.245-44.843-24.824-70.49-65.067-70.49-23.953 0-64.164 9.56-64.458 73.6v76.366a29.22 29.22 0 0 0-13.105 4.694c-5.456-12.56-17.969-21.357-32.518-21.357H473.88c-7.476 0-14.502-2.907-19.787-8.192-5.285-5.284-8.207-12.31-8.207-19.787v-.621c21.079-8.456 31.725-29.223 31.725-62.035C477.61 36.963 467.726 0 420.61 0c-37.29 0-56.206 22.865-56.206 67.973 0 33.046 10.648 53.874 31.725 62.221v.435c0 15.435-12.56 27.979-27.979 27.979h-21.155c-19.164 0-34.818 15.264-35.424 34.29a30.182 30.182 0 0 0-3.154-.172h-17.626c-6.235 0-12.095-2.424-16.494-6.839-1.368-1.368-2.533-2.906-3.528-4.554h40.757V116.53l-.016-3.109h-.046c-1.244-44.859-24.824-70.49-65.068-70.49-23.548 0-62.827 9.248-64.397 70.49l-.062 67.91h40.77c-4.15 6.949-11.72 11.394-20.035 11.394h-17.627a29.298 29.298 0 0 0-16.056 4.757 29.477 29.477 0 0 0-16.071-4.757h-17.628c-6.233 0-12.093-2.424-16.492-6.839-4.414-4.414-6.84-10.274-6.84-16.476v-.373c17.567-6.948 26.44-24.295 26.44-51.854 0-37.585-15.76-56.641-46.831-56.641-39.265 0-47.503 30.807-47.503 56.641 0 27.357 8.875 44.657 26.44 51.698v.529c0 12.855-10.46 23.315-23.331 23.315H29.547C13.257 192.726 0 205.97 0 222.275v35.247h6.217v-35.247c0-12.87 10.46-23.331 23.33-23.331h17.627c15.808 0 28.726-12.497 29.47-28.103 4.524 1.103 9.484 1.663 14.924 1.663 5.174 0 9.915-.528 14.254-1.554.371 7.29 3.355 14.113 8.578 19.336 5.565 5.58 12.996 8.658 20.89 8.658h17.629c3.962 0 7.708.995 10.972 2.736a24.017 24.017 0 0 1 5.099 3.699 23.228 23.228 0 0 1 7.259 16.896v35.247h6.217v-35.247c0-8.005-3.186-15.28-8.376-20.595a23.305 23.305 0 0 1 10.956-2.736h17.627c12.513 0 23.704-7.912 27.854-19.678.95-2.674 1.477-5.472 1.617-8.316 4.336 1.026 9.077 1.554 14.253 1.554 5.44 0 10.4-.56 14.907-1.663.14 2.891.668 5.72 1.633 8.409 1.444 4.088 3.84 7.896 6.962 11.036 5.58 5.58 12.996 8.658 20.893 8.658h17.626c1.056 0 2.113.078 3.123.218v58.366h7.46V194.063c0-15.435 12.56-27.994 27.995-27.994h21.155c18.917 0 34.369-14.906 35.347-33.59 5.191 1.244 10.896 1.88 17.113 1.88 6.528 0 12.483-.683 17.906-2.02.42 8.829 4.01 17.067 10.29 23.347 6.7 6.7 15.606 10.383 25.072 10.383h21.155c12.328 0 22.82 8.005 26.55 19.103a29.363 29.363 0 0 0-7.369 19.476v52.88h6.218v-52.88c0-3.854.934-7.476 2.596-10.678a23.56 23.56 0 0 1 6.56-7.85 23.201 23.201 0 0 1 14.176-4.803h17.611c15.776 0 28.662-12.435 29.47-27.994 4.338 1.026 9.079 1.57 14.269 1.57 5.44 0 10.399-.575 14.922-1.679.342 7.337 3.342 14.207 8.582 19.445 5.578 5.58 12.993 8.658 20.889 8.658h17.626c12.855 0 23.316 10.461 23.316 23.331v52.88h6.217v-52.88c0-15.248-11.595-27.823-26.424-29.377z" fill="#6377B8" fill-rule="evenodd"/></svg>