<?xml version="1.0" encoding="UTF-8"?>
<svg width="48px" height="27px" viewBox="0 0 48 27" version="1.1" xmlns="http://www.w3.org/2000/svg" xmlns:xlink="http://www.w3.org/1999/xlink">
    <!-- Generator: Sketch 48.2 (47327) - http://www.bohemiancoding.com/sketch -->
    <title>Soundcloud-color</title>
    <desc>Created with Sketch.</desc>
    <defs></defs>
    <g id="Propuesta---Fb-y-podcasts" stroke="none" stroke-width="1" fill="none" fill-rule="evenodd" transform="translate(-294.000000, -696.000000)">
        <g id="Group-2" transform="translate(169.000000, 650.000000)" fill="#FFFFFF">
            <path d="M125,68.1526084 C125,68.7566641 125.215945,69.213396 125.647743,69.5229896 C126.079587,69.8325368 126.541182,69.9419854 127.032573,69.8514281 C127.494168,69.7608243 127.81804,69.5947021 128.004234,69.3531076 C128.190336,69.1115132 128.283433,68.7113158 128.283433,68.1526084 L128.283433,61.583839 C128.283433,61.1156889 128.123374,60.7192976 127.80321,60.3946653 C127.483092,60.0699865 127.092212,59.9076703 126.630572,59.9076703 C126.183852,59.9076703 125.800433,60.0699865 125.480269,60.3946653 C125.160105,60.7192976 125,61.1156889 125,61.583839 L125,68.1526084 L125,68.1526084 Z M130.137273,70.9613236 C130.137273,71.3993034 130.289918,71.7276955 130.595161,71.9466854 C130.900449,72.1656753 131.291329,72.2751239 131.767799,72.2751239 C132.25919,72.2751239 132.657485,72.1656289 132.962773,71.9466854 C133.268016,71.7277419 133.420661,71.3993034 133.420661,70.9613236 L133.420661,55.6492957 C133.420661,55.1962771 133.260556,54.8074052 132.940437,54.4827728 C132.620273,54.1581405 132.229394,53.9957779 131.767799,53.9957779 C131.32108,53.9957779 130.937615,54.1581405 130.617497,54.4827728 C130.297332,54.8074516 130.137273,55.1962771 130.137273,55.6492957 L130.137273,70.9613236 L130.137273,70.9613236 Z M135.25221,71.6861533 C135.25221,72.1240867 135.408562,72.4525252 135.721266,72.6715151 C136.033969,72.8904586 136.436017,72.9999536 136.927454,72.9999536 C137.403924,72.9999536 137.794804,72.8904586 138.100047,72.6715151 C138.405335,72.4525252 138.55798,72.1240867 138.55798,71.6861533 L138.55798,57.7105302 C138.55798,57.2424265 138.397875,56.8422291 138.077756,56.510031 C137.757592,56.1778328 137.374173,56.011757 136.927454,56.011757 C136.465813,56.011757 136.071226,56.1778328 135.743647,56.510031 C135.416068,56.8422291 135.252256,57.2424265 135.252256,57.7105302 L135.252256,71.6861533 L135.25221,71.6861533 Z M140.389483,71.7541061 C140.389483,72.5846711 140.940422,72.9999536 142.042345,72.9999536 C143.144223,72.9999536 143.695161,72.5846711 143.695161,71.7541061 L143.695161,49.1031773 C143.695161,47.8347252 143.31545,47.1174613 142.556027,46.951339 C142.064635,46.8305186 141.580659,46.9739899 141.104189,47.3817067 C140.627673,47.7894234 140.389438,48.363216 140.389438,49.1031773 L140.389438,71.7541061 L140.389483,71.7541061 Z M145.616146,72.410983 L145.616146,47.7667724 C145.616146,46.9815557 145.846921,46.513452 146.308561,46.3624149 C147.306219,46.1208204 148.296463,46 149.279245,46 C151.557469,46 153.679432,46.5436223 155.644951,47.6308669 C157.610517,48.7181115 159.200124,50.2017473 160.413681,52.0817744 C161.627284,53.9618479 162.330867,56.0343615 162.52443,58.2995008 C163.432744,57.9068692 164.400606,57.7105766 165.42806,57.7105766 C167.512766,57.7105766 169.295936,58.4580573 170.777525,59.9530186 C172.25916,61.4480263 173,63.244969 173,65.3439861 C173,67.4580882 172.25916,69.2625967 170.777525,70.757558 C169.295936,72.2525193 167.520227,73 165.450396,73 L146.018102,72.9773491 C145.884041,72.9320472 145.783529,72.8489629 145.716521,72.7281889 C145.649513,72.6074148 145.616146,72.5015867 145.616146,72.410983 L145.616146,72.410983 L145.616146,72.410983 Z" id="Soundcloud"></path>
        </g>
    </g>
</svg>