<svg width="22" height="19" viewBox="0 0 22 19" xmlns="http://www.w3.org/2000/svg"><title>Twitter</title><path d="M22 2.17a8.816 8.816 0 0 1-2.592.729 4.618 4.618 0 0 0 1.985-2.56 8.89 8.89 0 0 1-2.868 1.122A4.451 4.451 0 0 0 15.231 0c-2.491 0-4.512 2.072-4.512 4.628 0 .363.039.715.116 1.054C7.085 5.49 3.76 3.648 1.531.845a4.712 4.712 0 0 0-.61 2.33c0 1.604.796 3.02 2.008 3.851A4.431 4.431 0 0 1 .883 6.45v.057c0 2.243 1.556 4.114 3.622 4.538a4.304 4.304 0 0 1-1.189.163c-.29 0-.575-.028-.85-.083.575 1.838 2.24 3.177 4.217 3.213A8.912 8.912 0 0 1 0 16.256a12.567 12.567 0 0 0 6.919 2.077c8.303 0 12.842-7.05 12.842-13.167 0-.202-.004-.403-.012-.6A9.264 9.264 0 0 0 22 2.17" fill="#FFF" fill-rule="evenodd"/></svg>