<?xml version="1.0" encoding="UTF-8"?>
<svg width="48px" height="34px" viewBox="0 0 48 34" version="1.1" xmlns="http://www.w3.org/2000/svg" xmlns:xlink="http://www.w3.org/1999/xlink">
    <!-- Generator: Sketch 48.2 (47327) - http://www.bohemiancoding.com/sketch -->
    <title>Youtube-color</title>
    <desc>Created with Sketch.</desc>
    <defs></defs>
    <g id="Propuesta---Fb-y-podcasts" stroke="none" stroke-width="1" fill="none" fill-rule="evenodd" transform="translate(-171.000000, -692.000000)">
        <g id="Group-2" transform="translate(169.000000, 650.000000)" fill="#FFFFFF">
            <path d="M21.044,65.269916 L21.0425,51.6877416 L34.0115,58.5022437 L21.044,65.269916 Z M49.52,49.3341627 C49.52,49.3341627 49.0505,46.003199 47.612,44.5363665 C45.7865,42.610299 43.7405,42.6012352 42.803,42.4894477 C36.086,42 26.0105,42 26.0105,42 L25.9895,42 C25.9895,42 15.914,42 9.197,42.4894477 C8.258,42.6012352 6.2135,42.610299 4.3865,44.5363665 C2.948,46.003199 2.48,49.3341627 2.48,49.3341627 C2.48,49.3341627 2,53.2467232 2,57.1577731 L2,60.8256098 C2,64.7381703 2.48,68.6492202 2.48,68.6492202 C2.48,68.6492202 2.948,71.9801839 4.3865,73.4470165 C6.2135,75.3730839 8.612,75.3126583 9.68,75.5135736 C13.52,75.8851913 26,76 26,76 C26,76 36.086,75.9848936 42.803,75.4954459 C43.7405,75.3821478 45.7865,75.3730839 47.612,73.4470165 C49.0505,71.9801839 49.52,68.6492202 49.52,68.6492202 C49.52,68.6492202 50,64.7381703 50,60.8256098 L50,57.1577731 C50,53.2467232 49.52,49.3341627 49.52,49.3341627 L49.52,49.3341627 Z" id="Youtube"></path>
        </g>
    </g>
</svg>