<?xml version="1.0" encoding="utf-8"?>
<!-- Generator: Adobe Illustrator 19.2.0, SVG Export Plug-In . SVG Version: 6.00 Build 0)  -->
<svg version="1.1" id="Layer_1" xmlns="http://www.w3.org/2000/svg" xmlns:xlink="http://www.w3.org/1999/xlink" x="0px" y="0px"
	 viewBox="0 0 48 34" style="enable-background:new 0 0 48 34;" xml:space="preserve">
<style type="text/css">
	.st0{fill:#FFFFFF;}
</style>
<title>Soundcloud-color</title>
<desc>Created with Sketch.</desc>
<g id="Propuesta---Fb-y-podcasts" transform="translate(-294.000000, -696.000000)">
	<g id="Group-2" transform="translate(169.000000, 650.000000)">
		<path id="Soundcloud" class="st0" d="M125,75.2c0,0.6,0.2,1.1,0.6,1.4c0.4,0.3,0.9,0.4,1.4,0.3c0.5-0.1,0.8-0.3,1-0.5
			c0.2-0.2,0.3-0.6,0.3-1.2v-6.6c0-0.5-0.2-0.9-0.5-1.2c-0.3-0.3-0.7-0.5-1.2-0.5c-0.4,0-0.8,0.2-1.2,0.5c-0.3,0.3-0.5,0.7-0.5,1.2
			V75.2L125,75.2z M130.1,78c0,0.4,0.2,0.8,0.5,1c0.3,0.2,0.7,0.3,1.2,0.3c0.5,0,0.9-0.1,1.2-0.3c0.3-0.2,0.5-0.5,0.5-1V62.6
			c0-0.5-0.2-0.8-0.5-1.2c-0.3-0.3-0.7-0.5-1.2-0.5c-0.4,0-0.8,0.2-1.2,0.5c-0.3,0.3-0.5,0.7-0.5,1.2V78L130.1,78z M135.3,78.7
			c0,0.4,0.2,0.8,0.5,1c0.3,0.2,0.7,0.3,1.2,0.3c0.5,0,0.9-0.1,1.2-0.3c0.3-0.2,0.5-0.5,0.5-1v-14c0-0.5-0.2-0.9-0.5-1.2
			c-0.3-0.3-0.7-0.5-1.2-0.5c-0.5,0-0.9,0.2-1.2,0.5c-0.3,0.3-0.5,0.7-0.5,1.2L135.3,78.7L135.3,78.7z M140.4,78.8
			c0,0.8,0.6,1.2,1.7,1.2c1.1,0,1.7-0.4,1.7-1.2V56.1c0-1.3-0.4-2-1.1-2.2c-0.5-0.1-1,0-1.5,0.4c-0.5,0.4-0.7,1-0.7,1.7L140.4,78.8
			L140.4,78.8z M145.6,79.4V54.8c0-0.8,0.2-1.3,0.7-1.4c1-0.2,2-0.4,3-0.4c2.3,0,4.4,0.5,6.4,1.6c2,1.1,3.6,2.6,4.8,4.5
			c1.2,1.9,1.9,4,2.1,6.2c0.9-0.4,1.9-0.6,2.9-0.6c2.1,0,3.9,0.7,5.3,2.2c1.5,1.5,2.2,3.3,2.2,5.4c0,2.1-0.7,3.9-2.2,5.4
			c-1.5,1.5-3.3,2.2-5.3,2.2L146,80c-0.1,0-0.2-0.1-0.3-0.2C145.6,79.6,145.6,79.5,145.6,79.4L145.6,79.4L145.6,79.4z"/>
	</g>
</g>
</svg>
