<svg width="135" height="35" viewBox="0 0 135 35" xmlns="http://www.w3.org/2000/svg"><title>Logo</title><path d="M129.369 8.098h5.27l-8.112 19.701C124.585 32.69 122.605 35 118.23 35c-1.795 0-3.511-.67-4.485-1.302l.786-4.219c.933.523 2.278 1.119 3.7 1.119 1.72 0 2.502-.82 3.25-2.5l.414-1.006-6.993-14.929h-4.932v15.785h-5.235l.002-15.785h-3.029V8.098h3.027V6.944c0-3.772 2.021-6.944 6.729-6.944 2.054 0 3.999.6 5.043 1.122l-1.157 4.514c-.785-.521-2.056-1.045-3.29-1.045-1.494 0-2.09.896-2.09 2.388v1.119h8.82l5.382 13.807 5.197-13.807zm-34.408 0h5.234v14.7c0 3.62-1.607 5.15-4.486 5.15H75.936v-3.992l9.458-11.754h-9.458V8.098h15.998v3.655L82.55 23.51h11.064c1.084 0 1.346-.857 1.346-1.978V8.098zM69.882 21.531c0 1.121.299 1.978 1.345 1.978h1.982l.221 4.44h-4.26c-2.204 0-3.585-.858-4.145-2.799-1.348 1.568-3.514 2.799-6.208 2.799-5.454 0-9.155-4.179-9.155-10.037 0-5.934 3.7-10.151 9.155-10.151 2.544 0 4.522.707 5.83 2.014V8.098h5.235V21.53zm-5.234-7.462v7.61c-1.047.97-2.654 1.754-4.37 1.754-3.213 0-5.308-2.24-5.308-5.52 0-3.362 2.054-5.601 5.308-5.601 1.756 0 3.475.824 4.37 1.757zM49.92 23.516l.261 4.427h-4.305c-2.87 0-4.478-1.518-4.478-5.144v-6.447l-6.001 7.164h-.936l-5.979-7.164v6.447c0 3.626-1.61 5.144-4.479 5.144h-4.48c-2.218 0-3.587-.846-4.152-2.8-1.348 1.586-3.523 2.8-6.218 2.8C3.717 27.943 0 23.776 0 17.914 0 11.988 3.717 7.756 9.154 7.756c2.543 0 4.522.715 5.848 2.018V8.103h5.218V21.54c0 1.106.304 1.975 1.348 1.975h.326c1.088 0 1.37-.869 1.37-1.998V8.103h4.697l6.979 8.249 6.98-8.25h4.718v13.416c0 1.13.261 1.998 1.348 1.998h1.935zM15.002 21.67c-1.065.977-2.653 1.759-4.37 1.759-3.218 0-5.327-2.236-5.327-5.515 0-3.364 2.066-5.6 5.327-5.6 1.739 0 3.457.825 4.37 1.758v7.598zM28.636 2.574c0 1.902-1.233 2.613-3.065 2.613-1.795 0-2.988-.711-2.988-2.613 0-1.902 1.193-2.573 2.988-2.573 1.832 0 3.065.67 3.065 2.573zm18.671 0c0 1.902-1.233 2.613-3.065 2.613-1.795 0-2.988-.711-2.988-2.613 0-1.902 1.193-2.573 2.988-2.573 1.832 0 3.065.67 3.065 2.573z" fill="#FFF" fill-rule="evenodd"/></svg>