<?xml version="1.0" encoding="UTF-8"?>
<svg width="325px" height="400px" viewBox="0 0 325 400" version="1.1" xmlns="http://www.w3.org/2000/svg" xmlns:xlink="http://www.w3.org/1999/xlink">
    <!-- Generator: Sketch 48.2 (47327) - http://www.bohemiancoding.com/sketch -->
    <title>Mask</title>
    <desc>Created with Sketch.</desc>
    <defs></defs>
    <g id="Propuesta---politicas-de-privacidad" stroke="none" stroke-width="1" fill="none" fill-rule="evenodd">
        <g id="main" fill="#E9B54C">
            <g id="bg-main">
                <path d="M-425.478112,53.130751 C-437.174853,23.4315366 -433.102776,-15.0376142 -407.483124,-34.0760711 C-380.035529,-54.4723861 -340.317808,-45.0736731 -311.254855,-27.0562296 C-295.158174,-17.0766468 -280.203771,-4.62687029 -262.204293,1.26117337 C-222.863837,14.1301343 -181.008275,-7.31713585 -146.903134,-30.7690057 C-112.796495,-54.2223726 -77.3619395,-81.5921194 -35.9734689,-81.9424378 C41.5756442,-82.599659 95.9992524,10.6898281 173.539383,9.29454288 C202.588861,8.77056239 229.621764,-5.43679443 258.340386,-9.83074514 C309.691971,-17.6874584 364.575185,9.6763001 389.203766,55.4153059 C400.09208,75.6349646 405.807959,99.2634907 421.889669,115.659589 C433.846904,127.850369 450.238511,134.611215 463.531147,145.331856 C505.957099,179.546285 506.39874,247.111324 480.213189,294.911819 C471.569008,310.68962 460.174678,325.513777 444.696294,334.684932 C412.496944,353.768302 371.292615,344.345636 336.450907,330.66675 C301.610695,316.987865 266.048888,299.211453 228.834296,303.228138 C185.450208,307.909529 151.021695,340.926289 110.652741,357.496049 C80.1450998,370.017686 46.6522666,372.931017 13.7238353,374.760458 C-20.5385006,376.663255 -58.691766,376.209638 -83.9655908,352.998799 C-94.9796608,342.882981 -102.355809,329.331349 -113.244124,319.083787 C-138.044869,295.738211 -176.193643,293.703669 -209.764325,299.452484 C-243.336504,305.199801 -276.076302,317.342675 -310.135034,317.48939 C-344.195263,317.634607 -381.845507,301.522955 -392.54968,269.188868 C-406.980103,225.593691 -372.360628,201.417218 -377.333951,155.765043 C-380.89103,123.118064 -413.779873,82.8299653 -425.478112,53.130751 Z" id="Mask" transform="translate(33.144479, 146.756330) scale(-1, -1) rotate(-53.000000) translate(-33.144479, -146.756330) "></path>
            </g>
        </g>
    </g>
</svg>