<svg width="1440" height="500" viewBox="0 0 1440 500" xmlns="http://www.w3.org/2000/svg" xmlns:xlink="http://www.w3.org/1999/xlink"><title>Group 9</title><defs><linearGradient x1="0%" y1="50%" y2="50%" id="b"><stop stop-color="#6377B8" offset="0%"/><stop stop-color="#734C98" offset="100%"/></linearGradient><path id="a" d="M0 0h1440v500H0z"/></defs><g fill="none" fill-rule="evenodd"><mask id="c" fill="#fff"><use xlink:href="#a"/></mask><use fill="url(#b)" xlink:href="#a"/><path d="M1067.364 634.592s-150.151-83.059-114.365-179.685c7.359-19.872 22.398-35.859 41.254-45.52 25.334-12.981 72.272-48.921 86.01-140.474 5.871-39.133 21.899-76.18 47.644-106.225 33.98-39.653 91.442-80.277 185.63-85.082 38.027-1.94 73.458-20.757 94.936-52.204 5.622-8.235 10.7-17.74 14.839-28.708H1440v630.983l-372.636 6.915zM0-37.293c-.832 0 115.164-12.934 136.722 0 21.557 12.934-16.51 78.065 38.513 152.517 23.52 31.823 38.382 69.352 41.423 108.803 4.011 52.065-7.896 121.423-71.1 191.422-25.517 28.26-37.264 66.62-30.215 104.043 1.848 9.798-115.343 0-115.343 0V-37.293z" fill="#E9B54C" mask="url(#c)"/></g></svg>