<?xml version="1.0" encoding="UTF-8"?>
<svg width="573px" height="209px" viewBox="0 0 573 209" version="1.1" xmlns="http://www.w3.org/2000/svg" xmlns:xlink="http://www.w3.org/1999/xlink">
    <!-- Generator: Sketch 48.2 (47327) - http://www.bohemiancoding.com/sketch -->
    <title>Mask</title>
    <desc>Created with Sketch.</desc>
    <defs></defs>
    <g id="Propuesta---politicas-de-privacidad" stroke="none" stroke-width="1" fill="none" fill-rule="evenodd" transform="translate(-867.000000, -191.000000)">
        <g id="main" fill="#E9B54C">
            <g id="bg-main">
                <path d="M892.812085,293.961789 C881.115343,264.262575 885.18742,225.793424 910.807072,206.754967 C938.254667,186.358652 977.972389,195.757365 1007.03534,213.774809 C1023.13202,223.754392 1038.08643,236.204168 1056.0859,242.092212 C1095.42636,254.961173 1137.28192,233.513903 1171.38706,210.062033 C1205.4937,186.608666 1240.92826,159.238919 1282.31673,158.888601 C1359.86584,158.231379 1414.28945,251.520867 1491.82958,250.125581 C1520.87906,249.601601 1547.91196,235.394244 1576.63058,231.000293 C1627.98217,223.14358 1682.86538,250.507339 1707.49396,296.246344 C1718.38228,316.466003 1724.09816,340.094529 1740.17987,356.490627 C1752.1371,368.681408 1768.52871,375.442253 1781.82134,386.162894 C1824.2473,420.377323 1824.68894,487.942362 1798.50339,535.742857 C1789.8592,551.520658 1778.46487,566.344815 1762.98649,575.515971 C1730.78714,594.59934 1689.58281,585.176674 1654.7411,571.497789 C1619.90089,557.818904 1584.33908,540.042491 1547.12449,544.059176 C1503.7404,548.740568 1469.31189,581.757327 1428.94294,598.327087 C1398.4353,610.848724 1364.94246,613.762056 1332.01403,615.591496 C1297.7517,617.494294 1259.59843,617.040676 1234.32461,593.829838 C1223.31054,583.71402 1215.93439,570.162387 1205.04607,559.914826 C1180.24533,536.569249 1142.09655,534.534708 1108.52587,540.283522 C1074.95369,546.03084 1042.21389,558.173713 1008.15516,558.320428 C974.094933,558.465645 936.444689,542.353994 925.740516,510.019906 C911.310093,466.424729 945.929568,442.248256 940.956245,396.596081 C937.399166,363.949102 904.510324,323.661004 892.812085,293.961789 Z" id="Mask" transform="translate(1351.434675, 387.587369) rotate(-21.000000) translate(-1351.434675, -387.587369) "></path>
            </g>
        </g>
    </g>
</svg>