<?xml version="1.0" encoding="UTF-8"?>
<svg width="503px" height="209px" viewBox="0 0 503 209" version="1.1" xmlns="http://www.w3.org/2000/svg" xmlns:xlink="http://www.w3.org/1999/xlink">
    <!-- Generator: Sketch 48.2 (47327) - http://www.bohemiancoding.com/sketch -->
    <title>Mask</title>
    <desc>Created with Sketch.</desc>
    <defs></defs>
    <g id="Propuesta---politicas-de-privacidad" stroke="none" stroke-width="1" fill="none" fill-rule="evenodd" transform="translate(-937.000000, -191.000000)">
        <g id="main" fill="#E9B54C">
            <g id="bg-main">
                <path d="M962.812085,293.961789 C951.115343,264.262575 955.18742,225.793424 980.807072,206.754967 C1008.25467,186.358652 1047.97239,195.757365 1077.03534,213.774809 C1093.13202,223.754392 1108.08643,236.204168 1126.0859,242.092212 C1165.42636,254.961173 1207.28192,233.513903 1241.38706,210.062033 C1275.4937,186.608666 1310.92826,159.238919 1352.31673,158.888601 C1429.86584,158.231379 1484.28945,251.520867 1561.82958,250.125581 C1590.87906,249.601601 1617.91196,235.394244 1646.63058,231.000293 C1697.98217,223.14358 1752.86538,250.507339 1777.49396,296.246344 C1788.38228,316.466003 1794.09816,340.094529 1810.17987,356.490627 C1822.1371,368.681408 1838.52871,375.442253 1851.82134,386.162894 C1894.2473,420.377323 1894.68894,487.942362 1868.50339,535.742857 C1859.8592,551.520658 1848.46487,566.344815 1832.98649,575.515971 C1800.78714,594.59934 1759.58281,585.176674 1724.7411,571.497789 C1689.90089,557.818904 1654.33908,540.042491 1617.12449,544.059176 C1573.7404,548.740568 1539.31189,581.757327 1498.94294,598.327087 C1468.4353,610.848724 1434.94246,613.762056 1402.01403,615.591496 C1367.7517,617.494294 1329.59843,617.040676 1304.32461,593.829838 C1293.31054,583.71402 1285.93439,570.162387 1275.04607,559.914826 C1250.24533,536.569249 1212.09655,534.534708 1178.52587,540.283522 C1144.95369,546.03084 1112.21389,558.173713 1078.15516,558.320428 C1044.09493,558.465645 1006.44469,542.353994 995.740516,510.019906 C981.310093,466.424729 1015.92957,442.248256 1010.95624,396.596081 C1007.39917,363.949102 974.510324,323.661004 962.812085,293.961789 Z" id="Mask" transform="translate(1421.434675, 387.587369) rotate(-21.000000) translate(-1421.434675, -387.587369) "></path>
            </g>
        </g>
    </g>
</svg>