<svg width="169" height="40" viewBox="0 0 169 40" xmlns="http://www.w3.org/2000/svg"><title>Combined Shape</title><path d="M.708 13.72h4.928c1.205 0 2.144.301 2.816.904.672.603 1.008 1.448 1.008 2.536s-.336 1.936-1.008 2.544c-.672.608-1.61.912-2.816.912H2.772V25H.708V13.72zm4.672 5.312c1.419 0 2.128-.619 2.128-1.856 0-.63-.176-1.096-.528-1.4-.352-.304-.885-.456-1.6-.456H2.772v3.712H5.38zm8.056 5.408c-.805-.47-1.427-1.141-1.864-2.016-.437-.875-.656-1.899-.656-3.072s.216-2.195.648-3.064a4.655 4.655 0 0 1 1.864-2.008c.81-.47 1.765-.704 2.864-.704s2.05.235 2.856.704c.805.47 1.424 1.139 1.856 2.008.432.87.648 1.89.648 3.064 0 1.173-.219 2.197-.656 3.072-.437.875-1.059 1.547-1.864 2.016-.805.47-1.752.704-2.84.704-1.099 0-2.05-.235-2.856-.704zm5.28-2.016c.581-.715.872-1.739.872-3.072s-.29-2.355-.872-3.064c-.581-.71-1.39-1.064-2.424-1.064-1.045 0-1.859.355-2.44 1.064-.581.71-.872 1.73-.872 3.064 0 1.333.29 2.357.872 3.072.581.715 1.395 1.072 2.44 1.072 1.035 0 1.843-.357 2.424-1.072zm19.208-8.704h1.968L35.908 25h-1.68l-2.832-8.112L28.548 25h-1.68L22.9 13.72h2.08l2.8 8.4 2.944-8.4h1.456l2.864 8.448 2.88-8.448zM41.492 25V13.72h7.552v1.632h-5.536v3.104h5.216v1.616h-5.216v3.296h5.536V25h-7.552zm18.88 0h-2.24l-1.936-3.6c-.181-.341-.405-.581-.672-.72s-.603-.208-1.008-.208h-1.568V25h-2.032V13.72h4.992c1.28 0 2.253.285 2.92.856.667.57 1 1.395 1 2.472 0 .864-.243 1.576-.728 2.136s-1.17.925-2.056 1.096c.597.16 1.077.581 1.44 1.264L60.372 25zm-3.04-6.552c.363-.293.544-.744.544-1.352 0-.619-.181-1.07-.544-1.352-.363-.283-.933-.424-1.712-.424h-2.688v3.568h2.688c.779 0 1.35-.147 1.712-.44zM62.036 25V13.72h7.552v1.632h-5.536v3.104h5.216v1.616h-5.216v3.296h5.536V25h-7.552zm9.424-11.28h4.16c1.845 0 3.277.493 4.296 1.48 1.019.987 1.528 2.37 1.528 4.152 0 1.781-.51 3.168-1.528 4.16-1.019.992-2.45 1.488-4.296 1.488h-4.16V13.72zm4.032 9.6c2.592 0 3.888-1.323 3.888-3.968 0-2.635-1.296-3.952-3.888-3.952h-1.968v7.92h1.968zm20.824-3.152c.357.48.536 1.067.536 1.76 0 .96-.344 1.712-1.032 2.256-.688.544-1.635.816-2.84.816h-5.12V13.72h4.96c1.173 0 2.093.259 2.76.776.667.517 1 1.24 1 2.168 0 .597-.157 1.115-.472 1.552-.315.437-.75.757-1.304.96.65.181 1.155.512 1.512.992zm-6.44-1.696h2.608c1.419 0 2.128-.528 2.128-1.584 0-.533-.176-.928-.528-1.184-.352-.256-.885-.384-1.6-.384h-2.608v3.152zM94.388 23c.341-.267.512-.683.512-1.248s-.173-.987-.52-1.264c-.347-.277-.888-.416-1.624-.416h-2.88V23.4h2.88c.747 0 1.29-.133 1.632-.4zm13.776-9.28l-4.576 6.08V25h-2.064v-5.2l-4.56-6.08h2.32l3.264 4.432 3.28-4.432h2.336zm.24 3.456h2.24v2.208h-2.24v-2.208zm0 5.616h2.24V25h-2.24v-2.208zm28.632-16.035l-2.677-2.193V0h19.631c4.723 0 8.566 3.832 8.566 8.543v19.119l-2.677-2.193V8.543c0-3.239-2.641-5.874-5.889-5.874h-16.954v4.088zm22.616 26.3l2.195 1.798A8.578 8.578 0 0 1 153.99 40h-19.63V12.338l2.676 2.192v22.8h16.954c2.691 0 4.961-1.811 5.662-4.274zm-20.606-22.494v3.455l-8.37-6.856v25.16H128V1.514l11.046 9.049zm27.193-2.886h2.676v30.808l-15.147-12.408a7.265 7.265 0 0 0 2.211-1.643l10.26 8.404V7.678zm-15.597-1.335c3.063 0 5.555 2.485 5.555 5.54v7.697c0 3.055-2.492 5.54-5.554 5.54h-7.248v7.203h-2.676V6.342h9.923zm2.878 13.237c0 1.582-1.29 2.87-2.877 2.87h-7.248V9.012h7.247a2.877 2.877 0 0 1 2.878 2.87v7.697z" fill="#FFF" fill-rule="evenodd"/></svg>