<?xml version="1.0" encoding="UTF-8"?>
<svg width="30px" height="25px" viewBox="0 0 30 25" version="1.1" xmlns="http://www.w3.org/2000/svg" xmlns:xlink="http://www.w3.org/1999/xlink">
    <!-- Generator: Sketch 48.2 (47327) - http://www.bohemiancoding.com/sketch -->
    <title>Twitter-color</title>
    <desc>Created with Sketch.</desc>
    <defs></defs>
    <g id="Propuesta---blogpost" stroke="none" stroke-width="1" fill="none" fill-rule="evenodd" transform="translate(-1085.000000, -890.000000)">
        <g id="Group-2" transform="translate(319.000000, 598.000000)" fill="#00AAEC">
            <g id="share" transform="translate(758.000000, 196.000000)">
                <path d="M38,98.9595522 C36.8976933,99.4615385 35.7108646,99.8010112 34.4659271,99.9526905 C35.7372777,99.1726255 36.7128015,97.9357169 37.1723895,96.4622607 C35.9820391,97.1845432 34.6666667,97.7100036 33.2614897,97.9916938 C32.1415742,96.7656194 30.5409403,96 28.7695017,96 C25.3727769,96 22.61701,98.8259299 22.61701,102.310943 C22.61701,102.805706 22.6698362,103.286024 22.7754886,103.748285 C17.6601514,103.484651 13.1259024,100.97472 10.0883958,97.1520404 C9.55837295,98.0873962 9.25550273,99.1726255 9.25550273,100.328277 C9.25550273,102.516793 10.3419616,104.448899 11.9936609,105.581076 C10.9864413,105.550379 10.0355696,105.263272 9.2044374,104.793788 L9.2044374,104.871434 C9.2044374,107.9303 11.3262898,110.481762 14.1436873,111.059588 C13.6277514,111.207656 13.0836415,111.28169 12.5219229,111.28169 C12.1257264,111.28169 11.7383342,111.24377 11.3632682,111.169736 C12.1468568,113.676056 14.4183835,115.501625 17.1125198,115.550379 C15.0065152,117.244131 12.3511182,118.253521 9.46856841,118.253521 C8.97200211,118.253521 8.48071844,118.22463 8,118.166847 C10.7240711,119.954496 13.9605564,121 17.4347596,121 C28.7571756,121 34.9466455,111.384615 34.9466455,103.044059 C34.9466455,102.769592 34.9413629,102.495125 34.9307977,102.226074 C36.1334742,101.335861 37.1776721,100.225352 38,98.9595522" id="Twitter"></path>
            </g>
        </g>
    </g>
</svg>